<svg width="891" height="631" viewBox="0 0 891 631" fill="none" xmlns="http://www.w3.org/2000/svg">
<g clip-path="url(#clip0_18_178)">
<path d="M832.443 101.807H166.33C161.468 101.807 156.804 103.74 153.366 107.182C149.927 110.624 147.996 115.292 147.996 120.16V491.683C147.996 496.55 149.927 501.218 153.366 504.66C156.804 508.102 161.468 510.036 166.33 510.036H832.443C837.306 510.036 841.969 508.102 845.407 504.66C848.846 501.218 850.777 496.55 850.777 491.683V120.16C850.777 115.292 848.846 110.624 845.407 107.182C841.969 103.74 837.306 101.807 832.443 101.807Z" fill="#3F3D56"/>
<path d="M826.197 134.241H172.576V503.325H826.197V134.241Z" fill="white"/>
<path d="M498.828 124.175C502.53 124.175 505.532 121.171 505.532 117.465C505.532 113.759 502.53 110.754 498.828 110.754C495.125 110.754 492.124 113.759 492.124 117.465C492.124 121.171 495.125 124.175 498.828 124.175Z" fill="white"/>
<path d="M639.272 503.326H172.577V134.241L639.272 503.326Z" fill="#F2F2F2"/>
<path d="M869.129 496.615H805.34V492.014C805.34 491.772 805.244 491.54 805.073 491.369C804.903 491.198 804.671 491.102 804.429 491.102H782.558C782.439 491.102 782.32 491.125 782.21 491.171C782.099 491.217 781.999 491.284 781.914 491.369C781.829 491.453 781.762 491.554 781.716 491.665C781.671 491.775 781.647 491.894 781.647 492.014V496.615H767.978V492.014C767.978 491.894 767.955 491.775 767.909 491.665C767.863 491.554 767.796 491.454 767.711 491.369C767.627 491.284 767.526 491.217 767.416 491.171C767.305 491.125 767.187 491.102 767.067 491.102H745.196C745.077 491.102 744.958 491.125 744.848 491.171C744.737 491.217 744.637 491.284 744.552 491.369C744.467 491.453 744.4 491.554 744.355 491.665C744.309 491.775 744.285 491.894 744.285 492.014V496.615H730.616V492.014C730.616 491.894 730.593 491.775 730.547 491.665C730.501 491.554 730.434 491.453 730.349 491.369C730.265 491.284 730.164 491.217 730.054 491.171C729.943 491.125 729.825 491.102 729.705 491.102H707.834C707.714 491.102 707.596 491.125 707.485 491.171C707.375 491.217 707.274 491.284 707.19 491.369C707.105 491.453 707.038 491.554 706.992 491.665C706.946 491.775 706.923 491.894 706.923 492.014V496.615H693.254V492.014C693.254 491.894 693.23 491.775 693.185 491.665C693.139 491.554 693.072 491.454 692.987 491.369C692.902 491.284 692.802 491.217 692.691 491.171C692.581 491.125 692.462 491.102 692.343 491.102H670.472C670.352 491.102 670.234 491.125 670.123 491.171C670.013 491.217 669.912 491.284 669.828 491.369C669.743 491.453 669.676 491.554 669.63 491.665C669.584 491.775 669.561 491.894 669.561 492.014V496.615H655.892V492.014C655.892 491.894 655.868 491.775 655.822 491.665C655.777 491.554 655.709 491.453 655.625 491.369C655.54 491.284 655.44 491.217 655.329 491.171C655.219 491.125 655.1 491.102 654.98 491.102H633.11C632.99 491.102 632.872 491.125 632.761 491.171C632.651 491.217 632.55 491.284 632.466 491.369C632.381 491.453 632.314 491.554 632.268 491.665C632.222 491.775 632.199 491.894 632.199 492.014V496.615H618.53V492.014C618.53 491.894 618.506 491.775 618.46 491.665C618.414 491.554 618.347 491.454 618.263 491.369C618.178 491.284 618.078 491.217 617.967 491.171C617.856 491.125 617.738 491.102 617.618 491.102H595.748C595.628 491.102 595.51 491.125 595.399 491.171C595.288 491.217 595.188 491.284 595.103 491.369C595.019 491.453 594.952 491.554 594.906 491.665C594.86 491.775 594.836 491.894 594.836 492.014V496.615H581.167V492.014C581.167 491.894 581.144 491.775 581.098 491.665C581.052 491.554 580.985 491.453 580.9 491.369C580.816 491.284 580.715 491.217 580.605 491.171C580.494 491.125 580.376 491.102 580.256 491.102H408.937C408.817 491.102 408.699 491.125 408.588 491.171C408.478 491.217 408.377 491.284 408.292 491.369C408.208 491.453 408.141 491.554 408.095 491.665C408.049 491.775 408.026 491.894 408.026 492.014V496.615H394.356V492.014C394.356 491.894 394.333 491.775 394.287 491.665C394.241 491.554 394.174 491.453 394.09 491.369C394.005 491.284 393.904 491.217 393.794 491.171C393.683 491.125 393.565 491.102 393.445 491.102H371.575C371.455 491.102 371.337 491.125 371.226 491.171C371.115 491.217 371.015 491.284 370.93 491.369C370.846 491.453 370.779 491.554 370.733 491.665C370.687 491.775 370.663 491.894 370.663 492.014V496.615H356.994V492.014C356.994 491.894 356.971 491.775 356.925 491.665C356.879 491.554 356.812 491.454 356.727 491.369C356.643 491.284 356.542 491.217 356.432 491.171C356.321 491.125 356.203 491.102 356.083 491.102H334.212C334.093 491.102 333.974 491.125 333.864 491.171C333.753 491.217 333.653 491.284 333.568 491.369C333.483 491.453 333.416 491.554 333.371 491.665C333.325 491.775 333.301 491.894 333.301 492.014V496.615H319.632V492.014C319.632 491.894 319.608 491.775 319.563 491.665C319.517 491.554 319.45 491.453 319.365 491.369C319.281 491.284 319.18 491.217 319.069 491.171C318.959 491.125 318.84 491.102 318.721 491.102H296.85C296.731 491.102 296.612 491.125 296.502 491.171C296.391 491.217 296.29 491.284 296.206 491.369C296.121 491.453 296.054 491.554 296.008 491.665C295.963 491.775 295.939 491.894 295.939 492.014V496.615H282.27V492.014C282.27 491.894 282.246 491.775 282.201 491.665C282.155 491.554 282.088 491.453 282.003 491.369C281.918 491.284 281.818 491.217 281.707 491.171C281.597 491.125 281.478 491.102 281.359 491.102H259.488C259.368 491.102 259.25 491.125 259.139 491.171C259.029 491.217 258.928 491.284 258.844 491.369C258.759 491.453 258.692 491.554 258.646 491.665C258.6 491.775 258.577 491.894 258.577 492.014V496.615H244.908V492.014C244.908 491.894 244.884 491.775 244.838 491.665C244.793 491.554 244.725 491.453 244.641 491.369C244.556 491.284 244.456 491.217 244.345 491.171C244.235 491.125 244.116 491.102 243.996 491.102H222.126C221.884 491.102 221.652 491.198 221.482 491.369C221.311 491.54 221.215 491.772 221.215 492.014V496.615H207.546V492.014C207.546 491.894 207.522 491.775 207.476 491.665C207.43 491.554 207.363 491.454 207.279 491.369C207.194 491.284 207.094 491.217 206.983 491.171C206.873 491.125 206.754 491.102 206.634 491.102H184.764C184.522 491.102 184.29 491.198 184.119 491.369C183.948 491.54 183.852 491.772 183.852 492.014V496.615H141.934C139.062 496.615 136.218 497.181 133.564 498.281C130.911 499.381 128.5 500.994 126.469 503.027C124.438 505.06 122.827 507.473 121.728 510.129C120.629 512.785 120.063 515.632 120.063 518.507V528.407C120.063 534.213 122.368 539.782 126.469 543.887C130.571 547.993 136.133 550.299 141.934 550.299H869.129C874.93 550.299 880.493 547.993 884.594 543.887C888.696 539.782 891 534.213 891 528.407V518.507C891 515.632 890.434 512.785 889.335 510.129C888.236 507.473 886.625 505.06 884.594 503.027C882.563 500.994 880.152 499.381 877.499 498.281C874.846 497.181 872.002 496.615 869.129 496.615Z" fill="#3F3D56"/>
<path d="M511.959 454.929C511.741 455.448 511.495 455.956 511.224 456.449C509.798 459.083 507.783 461.352 505.337 463.079C502.44 465.119 499.039 466.325 495.505 466.563C491.971 466.801 488.439 466.063 485.295 464.429C482.151 462.796 479.516 460.33 477.676 457.299C475.837 454.269 474.864 450.791 474.865 447.245V444.121H477.514C487.806 450.78 499.711 454.516 511.959 454.929Z" fill="#3F3D56"/>
<path d="M549.759 445.036V447.245C549.761 451.548 548.33 455.728 545.694 459.125C543.057 462.523 539.365 464.944 535.201 466.007C531.036 467.069 526.636 466.713 522.697 464.993C518.757 463.274 515.502 460.289 513.446 456.511C513.163 456.006 512.907 455.486 512.68 454.953C513.245 454.968 513.803 454.976 514.368 454.976C526.855 454.99 539.103 451.55 549.759 445.036Z" fill="#3F3D56"/>
<path d="M575.816 211.354C575.235 211.268 574.647 211.214 574.058 211.175C580.747 226.607 581.211 244.032 575.352 259.799C575.94 259.729 576.521 259.636 577.102 259.528C582.775 258.427 587.873 255.348 591.49 250.837C595.107 246.326 597.007 240.677 596.853 234.895C596.699 229.113 594.5 223.574 590.647 219.263C586.795 214.952 581.539 212.149 575.816 211.354Z" fill="#3F3D56"/>
<path d="M454.679 211.175C454.09 211.214 453.502 211.268 452.921 211.354C447.197 212.149 441.942 214.952 438.09 219.263C434.237 223.574 432.038 229.113 431.884 234.895C431.73 240.677 433.63 246.326 437.247 250.837C440.864 255.348 445.962 258.427 451.635 259.528C452.216 259.636 452.797 259.729 453.385 259.799C447.526 244.032 447.99 226.608 454.679 211.175Z" fill="#3F3D56"/>
<path d="M575.816 211.354C569.435 196.096 557.616 183.757 542.655 176.734C527.693 169.712 510.659 168.507 494.86 173.353C479.061 178.2 465.625 188.752 457.164 202.96C448.703 217.169 445.82 234.018 449.075 250.235C452.329 266.452 461.49 280.879 474.777 290.713C488.064 300.547 504.528 305.086 520.971 303.448C537.414 301.81 552.662 294.112 563.753 281.85C574.843 269.588 580.984 253.637 580.983 237.096C580.98 228.258 579.223 219.508 575.816 211.354ZM575.352 259.799C569.685 275.045 558.524 287.616 544.063 295.038C529.602 302.46 512.89 304.194 497.216 299.901C481.542 295.607 468.041 285.596 459.37 271.838C450.7 258.08 447.488 241.571 450.366 225.561C453.245 209.551 462.006 195.2 474.924 185.332C487.843 175.463 503.984 170.793 520.17 172.239C536.356 173.686 551.415 181.145 562.383 193.148C573.351 205.151 579.434 220.829 579.434 237.096C579.431 244.846 578.049 252.534 575.352 259.799Z" fill="#3F3D56"/>
<path d="M548.45 221.976H480.287C476.692 221.976 473.244 223.406 470.702 225.951C468.16 228.495 466.732 231.947 466.732 235.545C466.732 239.144 468.16 242.595 470.702 245.14C473.244 247.685 476.692 249.114 480.287 249.114H548.45C552.045 249.114 555.493 247.685 558.035 245.14C560.577 242.595 562.005 239.144 562.005 235.545C562.005 231.947 560.577 228.495 558.035 225.951C555.493 223.406 552.045 221.976 548.45 221.976Z" fill="#3F3D56"/>
<path d="M575.352 352.968C575.103 352.51 574.848 352.061 574.585 351.619C574.577 351.603 574.569 351.595 574.561 351.58C568.467 341.136 559.764 332.458 549.307 326.398C538.851 320.338 526.999 317.103 514.917 317.012C502.834 316.921 490.936 319.976 480.389 325.878C469.842 331.78 461.01 340.325 454.758 350.676C448.507 361.026 445.052 372.826 444.732 384.917C444.411 397.008 447.237 408.974 452.932 419.642C458.626 430.309 466.994 439.311 477.214 445.764C487.433 452.217 499.153 455.899 511.224 456.449C511.959 456.488 512.703 456.511 513.446 456.511C513.757 456.527 514.058 456.527 514.368 456.527C526.821 456.545 539.048 453.199 549.759 446.842C561.394 439.949 570.792 429.839 576.823 417.727C576.831 417.711 576.839 417.704 576.846 417.688C577.079 417.223 577.304 416.75 577.528 416.269C582.187 406.296 584.418 395.36 584.04 384.357C583.662 373.354 580.684 362.597 575.352 352.968ZM576.018 415.843C575.793 416.324 575.561 416.796 575.32 417.262C569.559 428.728 560.704 438.349 549.759 445.036C539.103 451.55 526.855 454.99 514.368 454.976C513.803 454.976 513.245 454.968 512.68 454.953C512.44 454.953 512.199 454.945 511.959 454.929C500.133 454.516 488.617 451.027 478.546 444.806C468.476 438.585 460.196 429.847 454.523 419.452C448.849 409.056 445.977 397.36 446.19 385.516C446.402 373.672 449.691 362.088 455.734 351.902C461.776 341.717 470.363 333.282 480.651 327.427C490.938 321.572 502.571 318.499 514.405 318.51C526.239 318.521 537.866 321.617 548.142 327.491C558.418 333.366 566.989 341.817 573.012 352.014C573.02 352.03 573.028 352.037 573.035 352.053C573.307 352.495 573.57 352.944 573.818 353.394C579.134 362.873 582.107 373.488 582.49 384.351C582.872 395.215 580.653 406.013 576.018 415.843Z" fill="#3F3D56"/>
<path d="M567.946 355.03C566.589 354.062 564.965 353.54 563.299 353.534H532.834C530.712 353.534 528.677 354.378 527.176 355.88C525.676 357.382 524.833 359.419 524.833 361.543C524.833 363.668 525.676 365.705 527.176 367.207C528.677 368.709 530.712 369.553 532.834 369.553H563.299C563.843 369.555 564.385 369.5 564.918 369.39C565.448 369.276 565.967 369.112 566.467 368.902C567.769 368.34 568.899 367.442 569.74 366.299C570.582 365.156 571.105 363.81 571.255 362.399C571.406 360.987 571.179 359.561 570.597 358.266C570.016 356.971 569.101 355.855 567.946 355.03Z" fill="#3F3D56"/>
<path d="M534.863 365.609C537.106 365.609 538.925 363.789 538.925 361.543C538.925 359.297 537.106 357.477 534.863 357.477C532.619 357.477 530.8 359.297 530.8 361.543C530.8 363.789 532.619 365.609 534.863 365.609Z" fill="#F1F1F1"/>
<path d="M548.065 365.609C550.309 365.609 552.127 363.789 552.127 361.543C552.127 359.297 550.309 357.477 548.065 357.477C545.822 357.477 544.003 359.297 544.003 361.543C544.003 363.789 545.822 365.609 548.065 365.609Z" fill="#F1F1F1"/>
<path d="M561.267 365.609C563.511 365.609 565.33 363.789 565.33 361.543C565.33 359.297 563.511 357.477 561.267 357.477C559.024 357.477 557.205 359.297 557.205 361.543C557.205 363.789 559.024 365.609 561.267 365.609Z" fill="#FCA311"/>
<path d="M714.266 227.522C703.702 233.864 684.88 241.81 665.647 233.644L653.214 228.364L678.129 200.406C658.247 178.462 647.247 149.889 647.278 120.264C647.308 90.6395 658.366 62.0891 678.292 40.1859C698.219 18.2826 725.585 4.59867 755.048 1.80499C784.511 -0.988695 813.956 7.3084 837.637 25.0768C861.318 42.8451 877.534 68.8095 883.121 97.9018C888.707 126.994 883.263 157.126 867.851 182.417C852.439 207.708 828.164 226.341 799.767 234.681C771.369 243.021 740.885 240.468 714.266 227.522Z" fill="white"/>
<path d="M714.331 229.028C704.18 234.994 684.843 243.239 665.128 234.867L650.989 228.864L676.346 200.41C660.569 182.645 650.396 160.604 647.108 137.063C643.82 113.521 647.565 89.5326 657.87 68.1175C668.175 46.7023 684.58 28.8184 705.019 16.7181C725.458 4.61773 749.017 -1.15796 772.729 0.118375C796.441 1.39471 819.245 9.666 838.27 23.8906C857.295 38.1152 871.69 57.6569 879.641 80.0548C887.593 102.453 888.746 126.705 882.955 149.758C877.165 172.81 864.689 193.632 847.1 209.601C829.435 225.736 807.35 236.208 783.688 239.671C760.026 243.133 735.87 239.427 714.331 229.028ZM853.425 41.2592C843.046 29.7976 830.512 20.4949 816.541 13.8827C802.57 7.2704 787.434 3.47803 771.998 2.72213C756.562 1.96624 741.129 4.26164 726.579 9.47723C712.03 14.6928 698.649 22.7264 687.202 33.1192C675.755 43.512 666.465 56.0604 659.862 70.0477C653.26 84.035 649.476 99.1872 648.725 114.639C647.973 130.091 650.27 145.539 655.484 160.102C660.698 174.665 668.727 188.057 679.112 199.513L679.915 200.4L655.438 227.865L666.165 232.42C685.205 240.505 704.047 232.106 713.583 226.381L714.2 226.011L714.846 226.326C739.43 238.283 767.404 241.3 793.968 234.859C820.531 228.419 844.026 212.922 860.419 191.03C876.812 169.138 885.08 142.216 883.804 114.887C882.528 87.5573 871.787 61.525 853.425 41.2592Z" fill="#FCA311"/>
<path opacity="0.1" d="M866.722 119.644C866.721 92.2507 856.473 65.8507 837.997 45.643C819.522 25.4353 794.157 12.8845 766.899 10.4622C770.089 10.1825 773.315 10.0312 776.577 10.0312C805.608 10.0487 833.443 21.6049 853.964 42.1594C874.485 62.7139 886.013 90.5843 886.013 119.644C886.013 148.704 874.485 176.574 853.964 197.129C833.443 217.683 805.608 229.239 776.577 229.257C773.32 229.257 770.099 229.103 766.914 228.824C794.17 226.398 819.53 213.846 838.003 193.639C856.475 173.432 866.721 147.035 866.722 119.644Z" fill="black"/>
<path d="M781.721 97.7857H703.476V105.059H781.721V97.7857Z" fill="#FCA311"/>
<path d="M839.85 122.947H703.476V130.221H839.85V122.947Z" fill="#FCA311"/>
<path d="M839.717 148.109H703.476V155.382H839.717V148.109Z" fill="#FCA311"/>
</g>
<defs>
<clipPath id="clip0_18_178">
<rect width="1154" height="631" fill="white" transform="translate(-263)"/>
</clipPath>
</defs>
</svg>
