<svg width="144" height="116" viewBox="0 0 144 116" fill="none" xmlns="http://www.w3.org/2000/svg">
<path d="M129.39 57.8C129.39 89.7221 103.512 115.6 71.59 115.6C39.668 115.6 13.79 89.7221 13.79 57.8C13.79 25.8779 39.668 1.15572e-07 71.59 1.15572e-07C103.512 1.15572e-07 129.39 25.8779 129.39 57.8Z" fill="white"/>
<path d="M124.857 35.4785C124.353 35.4046 123.842 35.3576 123.332 35.324C129.134 48.7017 129.537 63.8069 124.454 77.4747C124.964 77.4142 125.468 77.3336 125.972 77.2395C130.893 76.2858 135.315 73.6161 138.453 69.7059C141.59 65.7956 143.239 60.8984 143.105 55.8861C142.971 50.8738 141.063 46.0717 137.722 42.3346C134.38 38.5976 129.821 36.168 124.857 35.4785Z" fill="#3F3D56"/>
<path d="M19.7804 35.324C19.2696 35.3576 18.7591 35.4046 18.2552 35.4785C13.2908 36.1681 8.73201 38.5977 5.39047 42.3348C2.04893 46.0718 0.141434 50.8739 0.00755757 55.8861C-0.126319 60.8984 1.52213 65.7955 4.65941 69.7058C7.79669 73.616 12.2192 76.2857 17.1398 77.2395C17.6437 77.3336 18.1476 77.4142 18.6581 77.4747C13.5759 63.8068 13.9781 48.7018 19.7804 35.324Z" fill="#3F3D56"/>
<path d="M124.857 35.4785C119.322 22.2517 109.069 11.5555 96.092 5.46773C83.1145 -0.620047 68.3382 -1.66465 54.6339 2.53688C40.9295 6.7384 29.2756 15.8861 21.9361 28.2027C14.5966 40.5193 12.0956 55.1255 14.919 69.1837C17.7424 83.2419 25.6886 95.7482 37.2138 104.273C48.739 112.798 63.0204 116.733 77.2834 115.313C91.5464 113.893 104.773 107.22 114.393 96.5906C124.013 85.9608 129.34 72.1332 129.339 57.7941C129.336 50.1322 127.812 42.547 124.857 35.4785ZM124.454 77.4747C119.539 90.6913 109.857 101.589 97.3136 108.023C84.7702 114.456 70.2739 115.96 56.6778 112.238C43.0817 108.516 31.3707 99.8374 23.8497 87.9108C16.3287 75.9842 13.5424 61.6733 16.0394 47.7947C18.5364 33.9162 26.1357 21.4753 37.3416 12.9206C48.5475 4.36594 62.5484 0.317164 76.5886 1.57117C90.6287 2.82518 103.691 9.29112 113.205 19.6964C122.719 30.1016 127.995 43.6925 127.995 57.7941C127.993 64.5127 126.794 71.177 124.454 77.4747Z" fill="#3F3D56"/>
<path d="M101.119 44.6871H41.993C38.8746 44.6871 35.8839 45.9264 33.6788 48.1323C31.4737 50.3382 30.235 53.3301 30.235 56.4498C30.235 59.5694 31.4737 62.5613 33.6788 64.7672C35.8839 66.9732 38.8746 68.2124 41.993 68.2124H101.119C104.238 68.2124 107.228 66.9732 109.433 64.7672C111.638 62.5613 112.877 59.5694 112.877 56.4498C112.877 53.3301 111.638 50.3382 109.433 48.1323C107.228 45.9264 104.238 44.6871 101.119 44.6871Z" fill="#3F3D56"/>
</svg>
