<svg width="907" height="573" viewBox="0 0 907 573" fill="none" xmlns="http://www.w3.org/2000/svg">
<g clip-path="url(#clip0_18_225)">
<path d="M698.121 568.72C698.117 569.321 697.878 569.897 697.454 570.324C697.031 570.746 696.458 570.982 695.861 570.98H686.775C685.531 570.984 684.519 569.979 684.515 568.736V294.047C684.515 287.992 682.481 283.078 679.984 283.067H114.399C111.89 283.078 109.868 287.992 109.856 294.047V567.037C109.852 568.2 108.969 569.171 107.811 569.285C105.98 569.466 104.15 569.624 102.33 569.771C102.285 569.771 102.24 569.782 102.195 569.782C101.2 569.872 100.206 569.94 99.2112 570.019H99.1998C98.68 569.082 98.1828 568.121 97.6743 567.161C97.5112 566.835 97.4262 566.475 97.4256 566.111V279.802C97.4256 278.13 97.4935 276.447 97.6065 274.786C97.7677 272.506 98.0506 270.236 98.454 267.985C100.364 257.491 104.681 250.385 109.585 250.362H684.786C685.502 250.367 686.21 250.517 686.866 250.803C687.829 251.229 688.701 251.839 689.431 252.599C690.422 253.629 691.27 254.788 691.951 256.045C694.369 260.303 696.098 266.652 696.709 274.04C696.709 274.108 696.72 274.176 696.72 274.244C696.878 276.074 696.957 277.938 696.946 279.802L697.104 304.011L697.206 318.449L697.511 363.749L697.624 379.836L698.121 568.72Z" fill="#E6E6E6"/>
<path d="M488.213 166.614H430.574C428.876 166.617 427.501 167.994 427.503 169.692V260.715H491.292V169.692C491.293 167.993 489.916 166.615 488.216 166.614H488.213ZM459.587 218.332C455.836 218.315 452.799 215.279 452.781 211.528V201.03C452.781 197.272 455.828 194.226 459.587 194.226C463.346 194.226 466.394 197.272 466.394 201.03V211.528C466.376 215.279 463.339 218.315 459.587 218.332Z" fill="#CCCCCC"/>
<path d="M427.305 257.804V266.586C427.307 267.533 428.075 268.3 429.023 268.302H489.772C490.719 268.298 491.485 267.532 491.49 266.586V257.804H427.305Z" fill="#3F3D56"/>
<path d="M583.659 24.5616H337.273C332.865 24.5687 329.294 28.1386 329.287 32.5445V198.752C329.292 203.159 332.864 206.731 337.273 206.735H583.659C588.067 206.731 591.64 203.159 591.644 198.752V32.5445C591.637 28.1386 588.066 24.5687 583.659 24.5616Z" fill="#E6E6E6"/>
<path d="M581.602 30.3275H339.331C336.971 30.3326 335.061 32.2465 335.061 34.6057V196.694C335.065 199.05 336.974 200.959 339.331 200.963H581.602C583.959 200.959 585.869 199.05 585.873 196.694V34.6056C585.873 32.2465 583.962 30.3326 581.602 30.3275Z" fill="white"/>
<path d="M534.412 271.358H390.274C388.81 271.358 387.622 270.172 387.622 268.708C387.622 268.524 387.642 268.341 387.679 268.162L389.916 257.543C390.178 256.319 391.258 255.443 392.51 255.438H532.176C533.428 255.443 534.508 256.319 534.77 257.543L537.007 268.162C537.308 269.594 536.391 271 534.958 271.301C534.779 271.339 534.596 271.358 534.412 271.358Z" fill="#CCCCCC"/>
<path d="M397.421 257.35H394.085C393.781 257.35 393.534 257.597 393.534 257.902V259.462C393.534 259.766 393.781 260.013 394.085 260.013H397.421C397.726 260.013 397.973 259.766 397.973 259.462V257.902C397.973 257.597 397.726 257.35 397.421 257.35Z" fill="#E6E6E6"/>
<path d="M406.3 257.35H402.964C402.659 257.35 402.412 257.597 402.412 257.902V259.462C402.412 259.766 402.659 260.013 402.964 260.013H406.3C406.605 260.013 406.852 259.766 406.852 259.462V257.902C406.852 257.597 406.605 257.35 406.3 257.35Z" fill="#E6E6E6"/>
<path d="M415.178 257.35H411.843C411.538 257.35 411.291 257.597 411.291 257.902V259.462C411.291 259.766 411.538 260.013 411.843 260.013H415.178C415.483 260.013 415.73 259.766 415.73 259.462V257.902C415.73 257.597 415.483 257.35 415.178 257.35Z" fill="#E6E6E6"/>
<path d="M424.057 257.35H420.721C420.416 257.35 420.169 257.597 420.169 257.902V259.462C420.169 259.766 420.416 260.013 420.721 260.013H424.057C424.362 260.013 424.609 259.766 424.609 259.462V257.902C424.609 257.597 424.362 257.35 424.057 257.35Z" fill="#E6E6E6"/>
<path d="M432.936 257.35H429.6C429.295 257.35 429.048 257.597 429.048 257.902V259.462C429.048 259.766 429.295 260.013 429.6 260.013H432.936C433.24 260.013 433.487 259.766 433.487 259.462V257.902C433.487 257.597 433.24 257.35 432.936 257.35Z" fill="#E6E6E6"/>
<path d="M441.814 257.35H438.478C438.174 257.35 437.927 257.597 437.927 257.902V259.462C437.927 259.766 438.174 260.013 438.478 260.013H441.814C442.119 260.013 442.366 259.766 442.366 259.462V257.902C442.366 257.597 442.119 257.35 441.814 257.35Z" fill="#E6E6E6"/>
<path d="M450.693 257.35H447.357C447.052 257.35 446.805 257.597 446.805 257.902V259.462C446.805 259.766 447.052 260.013 447.357 260.013H450.693C450.998 260.013 451.245 259.766 451.245 259.462V257.902C451.245 257.597 450.998 257.35 450.693 257.35Z" fill="#E6E6E6"/>
<path d="M459.572 257.35H456.236C455.931 257.35 455.684 257.597 455.684 257.902V259.462C455.684 259.766 455.931 260.013 456.236 260.013H459.572C459.876 260.013 460.123 259.766 460.123 259.462V257.902C460.123 257.597 459.876 257.35 459.572 257.35Z" fill="#E6E6E6"/>
<path d="M468.45 257.35H465.114C464.81 257.35 464.563 257.597 464.563 257.902V259.462C464.563 259.766 464.81 260.013 465.114 260.013H468.45C468.755 260.013 469.002 259.766 469.002 259.462V257.902C469.002 257.597 468.755 257.35 468.45 257.35Z" fill="#E6E6E6"/>
<path d="M477.329 257.35H473.993C473.688 257.35 473.441 257.597 473.441 257.902V259.462C473.441 259.766 473.688 260.013 473.993 260.013H477.329C477.634 260.013 477.881 259.766 477.881 259.462V257.902C477.881 257.597 477.634 257.35 477.329 257.35Z" fill="#E6E6E6"/>
<path d="M486.208 257.35H482.872C482.567 257.35 482.32 257.597 482.32 257.902V259.462C482.32 259.766 482.567 260.013 482.872 260.013H486.208C486.512 260.013 486.759 259.766 486.759 259.462V257.902C486.759 257.597 486.512 257.35 486.208 257.35Z" fill="#E6E6E6"/>
<path d="M495.086 257.35H491.75C491.446 257.35 491.199 257.597 491.199 257.902V259.462C491.199 259.766 491.446 260.013 491.75 260.013H495.086C495.391 260.013 495.638 259.766 495.638 259.462V257.902C495.638 257.597 495.391 257.35 495.086 257.35Z" fill="#E6E6E6"/>
<path d="M503.965 257.35H500.629C500.324 257.35 500.077 257.597 500.077 257.902V259.462C500.077 259.766 500.324 260.013 500.629 260.013H503.965C504.269 260.013 504.516 259.766 504.516 259.462V257.902C504.516 257.597 504.269 257.35 503.965 257.35Z" fill="#E6E6E6"/>
<path d="M512.843 257.35H509.507C509.203 257.35 508.956 257.597 508.956 257.902V259.462C508.956 259.766 509.203 260.013 509.507 260.013H512.843C513.148 260.013 513.395 259.766 513.395 259.462V257.902C513.395 257.597 513.148 257.35 512.843 257.35Z" fill="#E6E6E6"/>
<path d="M521.722 257.35H518.386C518.081 257.35 517.834 257.597 517.834 257.902V259.462C517.834 259.766 518.081 260.013 518.386 260.013H521.722C522.027 260.013 522.274 259.766 522.274 259.462V257.902C522.274 257.597 522.027 257.35 521.722 257.35Z" fill="#E6E6E6"/>
<path d="M530.601 257.35H527.265C526.96 257.35 526.713 257.597 526.713 257.902V259.462C526.713 259.766 526.96 260.013 527.265 260.013H530.601C530.905 260.013 531.152 259.766 531.152 259.462V257.902C531.152 257.597 530.905 257.35 530.601 257.35Z" fill="#E6E6E6"/>
<path d="M397.316 261.788H393.98C393.676 261.788 393.429 262.035 393.429 262.34V263.9C393.429 264.204 393.676 264.451 393.98 264.451H397.316C397.621 264.451 397.868 264.204 397.868 263.9V262.34C397.868 262.035 397.621 261.788 397.316 261.788Z" fill="#E6E6E6"/>
<path d="M406.195 261.788H402.859C402.554 261.788 402.307 262.035 402.307 262.34V263.9C402.307 264.204 402.554 264.451 402.859 264.451H406.195C406.5 264.451 406.747 264.204 406.747 263.9V262.34C406.747 262.035 406.5 261.788 406.195 261.788Z" fill="#E6E6E6"/>
<path d="M415.074 261.788H411.738C411.433 261.788 411.186 262.035 411.186 262.34V263.9C411.186 264.204 411.433 264.451 411.738 264.451H415.074C415.378 264.451 415.625 264.204 415.625 263.9V262.34C415.625 262.035 415.378 261.788 415.074 261.788Z" fill="#E6E6E6"/>
<path d="M423.952 261.788H420.616C420.312 261.788 420.065 262.035 420.065 262.34V263.9C420.065 264.204 420.312 264.451 420.616 264.451H423.952C424.257 264.451 424.504 264.204 424.504 263.9V262.34C424.504 262.035 424.257 261.788 423.952 261.788Z" fill="#E6E6E6"/>
<path d="M432.831 261.788H429.495C429.19 261.788 428.943 262.035 428.943 262.34V263.9C428.943 264.204 429.19 264.451 429.495 264.451H432.831C433.136 264.451 433.383 264.204 433.383 263.9V262.34C433.383 262.035 433.136 261.788 432.831 261.788Z" fill="#E6E6E6"/>
<path d="M441.709 261.788H438.374C438.069 261.788 437.822 262.035 437.822 262.34V263.9C437.822 264.204 438.069 264.451 438.374 264.451H441.709C442.014 264.451 442.261 264.204 442.261 263.9V262.34C442.261 262.035 442.014 261.788 441.709 261.788Z" fill="#E6E6E6"/>
<path d="M450.588 261.788H447.252C446.947 261.788 446.7 262.035 446.7 262.34V263.9C446.7 264.204 446.947 264.451 447.252 264.451H450.588C450.893 264.451 451.14 264.204 451.14 263.9V262.34C451.14 262.035 450.893 261.788 450.588 261.788Z" fill="#E6E6E6"/>
<path d="M459.467 261.788H456.131C455.826 261.788 455.579 262.035 455.579 262.34V263.9C455.579 264.204 455.826 264.451 456.131 264.451H459.467C459.771 264.451 460.018 264.204 460.018 263.9V262.34C460.018 262.035 459.771 261.788 459.467 261.788Z" fill="#E6E6E6"/>
<path d="M468.345 261.788H465.009C464.705 261.788 464.458 262.035 464.458 262.34V263.9C464.458 264.204 464.705 264.451 465.009 264.451H468.345C468.65 264.451 468.897 264.204 468.897 263.9V262.34C468.897 262.035 468.65 261.788 468.345 261.788Z" fill="#E6E6E6"/>
<path d="M477.224 261.788H473.888C473.583 261.788 473.336 262.035 473.336 262.34V263.9C473.336 264.204 473.583 264.451 473.888 264.451H477.224C477.529 264.451 477.776 264.204 477.776 263.9V262.34C477.776 262.035 477.529 261.788 477.224 261.788Z" fill="#E6E6E6"/>
<path d="M486.103 261.788H482.767C482.462 261.788 482.215 262.035 482.215 262.34V263.9C482.215 264.204 482.462 264.451 482.767 264.451H486.103C486.407 264.451 486.654 264.204 486.654 263.9V262.34C486.654 262.035 486.407 261.788 486.103 261.788Z" fill="#E6E6E6"/>
<path d="M494.981 261.788H491.645C491.341 261.788 491.094 262.035 491.094 262.34V263.9C491.094 264.204 491.341 264.451 491.645 264.451H494.981C495.286 264.451 495.533 264.204 495.533 263.9V262.34C495.533 262.035 495.286 261.788 494.981 261.788Z" fill="#E6E6E6"/>
<path d="M503.86 261.788H500.524C500.219 261.788 499.972 262.035 499.972 262.34V263.9C499.972 264.204 500.219 264.451 500.524 264.451H503.86C504.165 264.451 504.412 264.204 504.412 263.9V262.34C504.412 262.035 504.165 261.788 503.86 261.788Z" fill="#E6E6E6"/>
<path d="M512.738 261.788H509.403C509.098 261.788 508.851 262.035 508.851 262.34V263.9C508.851 264.204 509.098 264.451 509.403 264.451H512.738C513.043 264.451 513.29 264.204 513.29 263.9V262.34C513.29 262.035 513.043 261.788 512.738 261.788Z" fill="#E6E6E6"/>
<path d="M521.617 261.788H518.281C517.976 261.788 517.729 262.035 517.729 262.34V263.9C517.729 264.204 517.976 264.451 518.281 264.451H521.617C521.922 264.451 522.169 264.204 522.169 263.9V262.34C522.169 262.035 521.922 261.788 521.617 261.788Z" fill="#E6E6E6"/>
<path d="M530.496 261.788H527.16C526.855 261.788 526.608 262.035 526.608 262.34V263.9C526.608 264.204 526.855 264.451 527.16 264.451H530.496C530.8 264.451 531.047 264.204 531.047 263.9V262.34C531.047 262.035 530.8 261.788 530.496 261.788Z" fill="#E6E6E6"/>
<path d="M471.009 267.114H436.598C436.293 267.114 436.046 267.361 436.046 267.665V269.225C436.046 269.53 436.293 269.776 436.598 269.776H471.009C471.314 269.776 471.561 269.53 471.561 269.225V267.665C471.561 267.361 471.314 267.114 471.009 267.114Z" fill="#E6E6E6"/>
<path d="M569.424 52.6597H342.732C342.234 52.6488 341.839 52.2364 341.85 51.7387C341.861 51.2564 342.249 50.8679 342.732 50.8573H569.424C569.922 50.8682 570.316 51.2806 570.305 51.7783C570.295 52.2606 569.906 52.6491 569.424 52.6597Z" fill="#CACACA"/>
<path d="M358.163 46.2559C361.081 46.2559 363.446 43.8386 363.446 40.8568C363.446 37.8749 361.081 35.4576 358.163 35.4576C355.245 35.4576 352.88 37.8749 352.88 40.8568C352.88 43.8386 355.245 46.2559 358.163 46.2559Z" fill="#CCCCCC"/>
<path d="M376.414 46.2559C379.332 46.2559 381.697 43.8386 381.697 40.8568C381.697 37.8749 379.332 35.4576 376.414 35.4576C373.496 35.4576 371.131 37.8749 371.131 40.8568C371.131 43.8386 373.496 46.2559 376.414 46.2559Z" fill="#CCCCCC"/>
<path d="M394.665 46.2559C397.583 46.2559 399.948 43.8386 399.948 40.8568C399.948 37.8749 397.583 35.4576 394.665 35.4576C391.747 35.4576 389.382 37.8749 389.382 40.8568C389.382 43.8386 391.747 46.2559 394.665 46.2559Z" fill="#CCCCCC"/>
<path d="M455.846 66.3241L455.113 64.1856L548.748 15.5502L549.479 17.6887L455.846 66.3241Z" fill="#3F3D56"/>
<path d="M738.361 156.408L737.629 154.269L793.971 105.88L794.702 108.018L738.361 156.408Z" fill="#3F3D56"/>
<path d="M630.112 167.672L536.478 119.037L537.21 116.898L630.843 165.533L630.112 167.672Z" fill="#3F3D56"/>
<path d="M678.044 133.829L623.151 43.7405L624.886 42.2911L679.777 132.379L678.044 133.829Z" fill="#3F3D56"/>
<path d="M720.882 16.4416L667.422 16.1953V13.9359L720.882 14.1822V16.4416Z" fill="#3F3D56"/>
<path d="M817.725 30.4558H757.832C749.718 30.4558 743.141 23.8807 743.141 15.7698C743.141 7.659 749.718 1.08386 757.832 1.08386H817.725C825.839 1.08386 832.416 7.659 832.416 15.7698C832.416 23.8807 825.839 30.4558 817.725 30.4558Z" fill="#FCA311"/>
<path d="M892.309 116.312H832.416C824.302 116.312 817.725 109.737 817.725 101.626C817.725 93.5156 824.302 86.9404 832.416 86.9404H892.309C900.423 86.9404 907 93.5156 907 101.626C907 109.737 900.423 116.312 892.309 116.312Z" fill="#FCA311"/>
<path d="M795.466 176.856L742.006 176.611V174.352L795.466 174.597V176.856Z" fill="#3F3D56"/>
<path d="M892.309 190.872H832.416C824.302 190.872 817.725 184.297 817.725 176.186C817.725 168.075 824.302 161.5 832.416 161.5H892.309C900.423 161.5 907 168.075 907 176.186C907 184.297 900.423 190.872 892.309 190.872Z" fill="#FCA311"/>
<path d="M717.15 180.75H657.256C649.143 180.75 642.566 174.175 642.566 166.064C642.566 157.954 649.143 151.378 657.256 151.378H717.15C725.263 151.378 731.84 157.954 731.84 166.064C731.84 174.175 725.263 180.75 717.15 180.75Z" fill="#FCA311"/>
<path d="M635.785 29.3719H575.892C567.779 29.3719 561.201 22.7968 561.201 14.686C561.201 6.57514 567.779 0 575.892 0H635.785C643.899 0 650.476 6.57514 650.476 14.686C650.476 22.7968 643.899 29.3719 635.785 29.3719Z" fill="#FCA311"/>
<path d="M349.508 281.496H281.705C276.712 281.496 272.664 285.543 272.664 290.534C272.664 295.525 276.712 299.571 281.705 299.571H306.566V369.612H324.647V299.571H349.508C354.501 299.571 358.549 295.525 358.549 290.534C358.549 285.543 354.501 281.496 349.508 281.496Z" fill="#3F3D56"/>
<path d="M394.26 408.402H212.905C176.563 408.27 145.817 381.515 140.675 345.551L134.255 321.946C120.968 273.03 100.729 226.272 74.1573 183.103C62.0122 163.386 55.7611 144.3 69.9593 125.924C70.0802 125.767 70.1991 125.613 70.316 125.461C81.7038 110.643 138.385 107.436 156.862 106.812C157.592 106.787 158.325 106.775 159.061 106.775H271.862C272.598 106.775 273.331 106.787 274.06 106.812C294.354 107.403 312.685 119.084 321.789 137.224C331.504 155.745 330.265 178.103 318.562 195.437C278.938 254.939 266.806 292.248 279.227 316.41C291.241 339.78 328.068 351.729 395.124 354.012C413.144 354.625 421.415 368.653 421.473 381.425C421.529 393.869 413.578 407.607 395.987 408.366C395.415 408.39 394.839 408.402 394.26 408.402Z" fill="#3F3D56"/>
<path d="M243.713 569.383H311.517C316.509 569.383 320.557 565.337 320.557 560.345C320.557 555.354 316.509 551.308 311.517 551.308H286.655V398.8H268.574V551.308H243.713C238.72 551.308 234.672 555.354 234.672 560.345C234.672 565.337 238.72 569.383 243.713 569.383Z" fill="#3F3D56"/>
<path d="M305.082 507.9L316.762 514.242L347.683 471.505L330.443 462.143L305.082 507.9Z" fill="#A0616A"/>
<path d="M310.704 492.67L331.909 499.308L328.534 508.189L343.074 529.285C344.934 531.984 344.254 535.679 341.555 537.539C339.949 538.645 337.901 538.892 336.078 538.2L311.393 528.824L310.476 518.424L305.477 526.577L296.17 523.043L310.704 492.67Z" fill="#2F2E41"/>
<path d="M334.594 76.9043C335.64 84.0748 330.673 90.7355 323.501 91.7814C322.736 91.8929 321.963 91.9367 321.19 91.9122L276.156 187.705L262.031 168.014L308.391 77.4346C309.103 70.1839 315.56 64.8832 322.813 65.5952C328.882 66.191 333.753 70.8664 334.594 76.9043Z" fill="#A0616A"/>
<path d="M185.143 207.073C185.143 207.073 183.936 223.808 202.868 227.09C221.8 230.372 272.411 198.379 280.723 193.466C289.035 188.554 304.524 126.746 304.524 126.746L291.054 103.969C274.422 125.001 261.362 144.394 260.569 158.161L185.143 207.073Z" fill="#FCA311"/>
<path d="M206.999 264.717L211.088 282.279C211.088 282.279 211.128 298.473 213.997 301.459C216.846 304.431 279.491 298.464 279.491 298.464C279.491 298.464 272.849 272.369 272.937 252.623L206.999 264.717Z" fill="#A0616A"/>
<path d="M339.338 489.359L316.737 476.933C316.307 447.533 333.996 407.747 354.977 366.074C308.054 374.141 263.786 376.725 225.496 366.966C212.416 363.513 204.533 350.202 207.796 337.077C207.945 336.458 208.117 335.845 208.313 335.239C212.896 321.262 202.62 312.501 212.071 297.128C236.928 288.641 260.542 286.245 282.135 293.739L295.665 323.643L362.725 314.968C376.285 313.347 388.592 323.023 390.214 336.578C390.221 336.64 390.228 336.702 390.235 336.764C390.325 337.492 390.384 338.222 390.412 338.956C376.852 402.504 361.647 459.684 339.338 489.359Z" fill="#2F2E41"/>
<path d="M197.896 153.53L223.731 152.005C225.964 151.873 228.035 153.172 228.888 155.239L236.189 172.932L266.531 198.002C266.531 198.002 278.545 213.285 278.573 233.022C278.601 252.759 282.835 298.442 282.835 298.442C282.835 298.442 265.302 273.771 254.48 280.333C252.639 281.449 251.992 283.732 250.063 284.886C249.101 285.461 246.879 284.902 245.907 285.478C230.995 294.328 215.443 302.973 213.99 301.457C211.137 298.481 207.676 283.272 207.676 283.272L184.028 196.413C181.432 187.16 183.111 177.231 188.604 169.344C190.256 167.018 191.987 165.289 193.596 165.002C197.208 164.234 195.287 156.141 197.896 153.53Z" fill="#FCA311"/>
<path d="M417.658 544.691L428.564 537.112L403.859 490.519L387.765 501.706L417.658 544.691Z" fill="#A0616A"/>
<path d="M419.307 513.429L402.216 528.7C375.041 498.429 354.497 455.976 337.087 407.764C291.471 394.408 257.071 372.87 227.039 347.295C216.852 338.678 209.214 327.607 217.903 317.109C218.309 316.618 218.734 316.143 219.176 315.685C229.435 305.145 255.451 307.154 270.689 297.497L304.728 333.869L302.587 343.62L366.523 365.271C379.393 369.78 386.171 383.866 381.66 396.732C381.638 396.796 381.615 396.859 381.593 396.922C381.353 397.615 381.084 398.297 380.786 398.968L419.307 513.429Z" fill="#2F2E41"/>
<path d="M411.3 541.619L428.757 527.876L434.181 535.677L459.809 535.599C463.087 535.588 465.753 538.237 465.763 541.514C465.769 543.464 464.817 545.292 463.215 546.405L441.533 561.473L432.43 556.354L436.336 565.084L428.161 570.765L411.3 541.619Z" fill="#2F2E41"/>
<path d="M236.045 372.428C229.373 369.597 226.259 361.895 229.092 355.224C229.394 354.513 229.758 353.83 230.18 353.183L171.694 264.952L195.862 263.115L249.204 349.77C255.032 354.145 256.208 362.415 251.832 368.24C248.17 373.115 241.643 374.847 236.045 372.428Z" fill="#A0616A"/>
<path d="M202.418 177.148C202.418 177.148 188.741 167.423 176.1 181.89C163.46 196.357 164.516 256.209 164.397 265.861C164.36 268.883 168.725 275.405 174.74 282.938C177.441 286.32 180.473 289.905 183.589 293.47C185.393 295.533 183.839 299.826 185.65 301.831C187.45 303.825 192.615 303.531 194.328 305.381C202.458 314.165 209.063 320.851 209.063 320.851L235.529 321.177C235.828 301.509 222.354 283.953 205.045 266.985L202.418 177.148Z" fill="#FCA311"/>
<path d="M175.741 91.5137C173.235 93.3216 170.599 95.1842 167.541 95.6322C164.484 96.0802 160.904 94.6026 160.058 91.6315C159.023 87.9987 162.305 84.691 165.254 82.3301L174.607 74.8436C176.319 73.3252 178.253 72.0756 180.341 71.1375C182.465 70.203 184.899 70.2843 186.956 71.3585C189 72.7382 190.182 75.0788 190.079 77.542C189.945 79.9699 189.144 82.3139 187.763 84.3153C184.254 89.7816 178.666 93.5792 172.291 94.8291" fill="#2F2E41"/>
<path d="M246.673 286.015H178.869C173.876 286.015 169.829 290.061 169.829 295.053C169.829 300.044 173.876 304.09 178.869 304.09H203.731V374.131H221.812V304.09H246.673C251.666 304.09 255.713 300.044 255.713 295.053C255.713 290.061 251.666 286.015 246.673 286.015Z" fill="#3F3D56"/>
<path d="M179.895 72.5526C180.168 65.7766 172.945 60.4111 166.176 60.8353C159.408 61.2594 153.589 66.0188 149.751 71.61C145.914 77.1965 143.608 83.6672 140.585 89.7328C137.562 95.7984 133.537 101.737 127.53 104.881C121.524 108.019 113.163 107.459 109.012 102.1C106.394 106.069 105.825 111.047 107.479 115.504C109.178 119.904 112.348 123.58 116.45 125.91C118.082 126.878 119.826 127.644 121.643 128.193C122.393 126.171 123.447 124.276 124.769 122.573C124.172 124.589 123.944 126.697 124.096 128.794C126.897 129.331 129.778 129.285 132.561 128.661C138.101 127.422 142.733 123.645 145.061 118.469C147.6 112.462 146.307 105.613 146.85 99.1141C147.388 92.6145 151.306 85.1948 157.83 85.0889C162.798 85.0072 162.14 85.4166 165.288 89.2594" fill="#2F2E41"/>
<path d="M225.008 108.159C225.008 124.38 211.853 137.531 195.626 137.531C179.399 137.531 163.985 118.732 163.985 102.51C163.985 86.2886 179.399 78.7867 195.626 78.7867C211.853 78.7867 225.008 91.937 225.008 108.159Z" fill="#2F2E41"/>
<path d="M210.105 143.357C225.272 140.255 235.051 125.449 231.948 110.287C228.845 95.1248 214.033 85.3486 198.866 88.451C183.699 91.5535 173.92 106.36 177.023 121.522C180.127 136.684 194.938 146.46 210.105 143.357Z" fill="#A0616A"/>
<path d="M239.699 111.548C231.401 113.813 223.022 116.187 219.787 111.548C219.158 108.472 217.967 105.538 216.273 102.894C215.954 105.855 215.259 108.763 214.205 111.548C203.721 113.826 193.923 114.37 185.456 111.548C184.292 113.653 183.616 115.992 183.478 118.394C183.06 118.131 182.621 117.9 182.167 117.705C181.623 117.397 180.972 117.339 180.382 117.547C179.974 117.793 179.703 118.214 179.647 118.688C179.591 119.159 179.614 119.636 179.715 120.1C179.834 121.715 180.317 123.283 181.128 124.686C181.776 125.663 182.805 126.323 183.964 126.505C185.139 133.114 194.496 142.05 194.496 142.05C166.245 143.179 166.245 124.02 166.245 105.899L169.635 99.1213H180.936V84.4353H212.577C227.554 84.4392 239.695 96.5756 239.699 111.548Z" fill="#2F2E41"/>
<path d="M508.499 167.194H411.366C402.93 167.185 396.093 160.35 396.084 151.917V87.5775C396.093 79.144 402.93 72.3095 411.366 72.3002H508.499C516.935 72.3095 523.772 79.144 523.781 87.5775V151.917C523.772 160.35 516.935 167.185 508.499 167.194ZM411.366 74.5595C404.178 74.5677 398.352 80.3913 398.344 87.5775V151.917C398.352 159.103 404.178 164.927 411.366 164.935H508.499C515.687 164.927 521.513 159.103 521.521 151.917V87.5775C521.513 80.3912 515.687 74.5677 508.499 74.5596L411.366 74.5595Z" fill="#E6E6E6"/>
<path d="M440.146 92.6346H414.165V94.894H440.146V92.6346Z" fill="#E6E6E6"/>
<path d="M471.798 101.672H414.165V103.931H471.798V101.672Z" fill="#E6E6E6"/>
<path d="M471.798 109.58H414.165V111.839H471.798V109.58Z" fill="#E6E6E6"/>
<path d="M487.619 117.488H414.165V119.747H487.619V117.488Z" fill="#E6E6E6"/>
<path d="M452.587 125.396H414.165V127.655H452.587V125.396Z" fill="#E6E6E6"/>
<path d="M484.229 133.303H414.165V135.563H484.229V133.303Z" fill="#E6E6E6"/>
<path d="M426.596 141.211H414.165V143.471H426.596V141.211Z" fill="#E6E6E6"/>
<path d="M413.319 44.0108C413.209 44.0108 413.099 43.9683 413.017 43.8837L410.606 41.4197C410.445 41.2555 410.445 40.9931 410.606 40.829L413.017 38.3651C413.18 38.1985 413.448 38.1958 413.614 38.3585C413.781 38.5217 413.784 38.7892 413.621 38.9559L411.499 41.1243L413.621 43.293C413.784 43.4597 413.781 43.7272 413.614 43.8904C413.532 43.9708 413.425 44.0108 413.319 44.0108Z" fill="#CCCCCC"/>
<path d="M417.37 44.0109C417.264 44.0109 417.157 43.9709 417.075 43.8904C416.908 43.7273 416.905 43.4599 417.068 43.2931L419.19 41.1244L417.068 38.9559C416.905 38.7893 416.908 38.5218 417.075 38.3586C417.242 38.1952 417.509 38.1983 417.673 38.3652L420.084 40.829C420.244 40.9932 420.244 41.2556 420.084 41.4198L417.673 43.8838C417.59 43.9684 417.48 44.0109 417.37 44.0109Z" fill="#CCCCCC"/>
<path d="M543.512 37.8954H539.028C538.517 37.8954 538.103 38.3094 538.103 38.8205V43.3067C538.103 43.8179 538.517 44.2319 539.028 44.2319H543.512C544.023 44.2319 544.441 43.8179 544.441 43.3067V38.8205C544.441 38.3094 544.023 37.8954 543.512 37.8954Z" fill="#CCCCCC"/>
<path d="M532.525 37.8954H528.041C527.53 37.8954 527.116 38.3094 527.116 38.8205V43.3067C527.116 43.8179 527.53 44.2319 528.041 44.2319H532.525C533.036 44.2319 533.455 43.8179 533.455 43.3067V38.8205C533.455 38.3094 533.036 37.8954 532.525 37.8954Z" fill="#CCCCCC"/>
<path d="M553.865 38.1066H549.381C548.87 38.1066 548.456 38.5205 548.456 39.0317V43.5179C548.456 44.0291 548.87 44.443 549.381 44.443H553.865C554.376 44.443 554.794 44.0291 554.794 43.5179V39.0317C554.794 38.5205 554.376 38.1066 553.865 38.1066Z" fill="#CCCCCC"/>
<path d="M486.287 39.8131H450.448C449.823 39.8131 449.32 40.32 449.32 40.941C449.32 41.562 449.823 42.0689 450.448 42.0689H486.287C486.908 42.0689 487.415 41.562 487.415 40.941C487.415 40.3201 486.908 39.8131 486.287 39.8131Z" fill="#CCCCCC"/>
</g>
<defs>
<clipPath id="clip0_18_225">
<rect width="907" height="573" fill="white"/>
</clipPath>
</defs>
</svg>
